<svg version="1.1" xmlns="http://www.w3.org/2000/svg" xmlns:xlink="http://www.w3.org/1999/xlink" width="20" height="20" viewBox="0 0 20 20" xml:space="preserve" id="bugCanvas">
  <g id="buggroup">
    <path id="bug" stroke="none" fill="#000" d="M 14.94,5.11 C 15.99,4.03 16.87,3.12 16.87,3.12 L 17.6,3.87 C 17.6,3.87 16.29,5.22 15.36,6.18 15.73,7.27 15.93,8.48 15.93,9.75 L 15.93,10.02 18.25,10.02 18.25,11.08 15.86,11.08 C 15.72,12.31 15.39,13.45 14.91,14.45 15.87,15.44 17.09,16.69 17.09,16.69 L 16.36,17.45 C 16.36,17.45 15.42,16.47 14.38,15.4 13.25,17.15 11.6,18.25 9.75,18.25 7.9,18.25 6.25,17.15 5.12,15.4 4.08,16.47 3.14,17.45 3.14,17.45 L 2.41,16.69 C 2.41,16.69 4.06,14.99 4.59,14.45 4.11,13.45 3.78,12.31 3.64,11.08 L 1.25,11.08 1.25,10.02 3.57,10.02 3.57,9.75 C 3.57,8.48 3.77,7.27 4.14,6.18 3.21,5.22 1.9,3.87 1.9,3.87 L 2.63,3.12 C 2.63,3.12 3.51,4.03 4.56,5.12 4.88,4.45 5.26,3.84 5.7,3.32 6.27,2.63 6.94,2.09 7.68,1.73 8.32,1.42 9.02,1.25 9.75,1.25 11.94,1.25 13.84,2.79 14.94,5.11 Z M 9.75,2.31 C 8.56,2.31 7.45,2.91 6.57,3.91 5.95,4.61 5.44,5.52 5.1,6.56 5.14,6.56 14.36,6.56 14.36,6.56 13.57,4.04 11.78,2.31 9.75,2.31 Z M 14.69,7.62 L 10.52,7.62 C 10.52,10.2 10.52,16.6 10.52,17.15 13.09,16.78 14.9,13.63 14.9,9.75 L 14.9,9.5 C 14.88,8.85 14.81,8.22 14.69,7.62 Z M 8.98,7.62 L 4.81,7.62 C 4.67,8.3 4.6,9.01 4.6,9.75 4.6,13.63 6.41,16.78 8.98,17.15 8.98,16.6 8.98,10.2 8.98,7.62 Z M 7.25,11.5 C 7.25,11.78 7.03,12 6.75,12 6.47,12 6.25,11.78 6.25,11.5 6.25,11.22 6.47,11 6.75,11 7.03,11 7.25,11.22 7.25,11.5 Z M 13,11.5 C 13,11.78 12.78,12 12.5,12 12.22,12 12,11.78 12,11.5 12,11.22 12.22,11 12.5,11 12.78,11 13,11.22 13,11.5 Z M 7.25,13.5 C 7.25,13.78 7.03,14 6.75,14 6.47,14 6.25,13.78 6.25,13.5 6.25,13.22 6.47,13 6.75,13 7.03,13 7.25,13.22 7.25,13.5 Z M 13,13.5 C 13,13.78 12.78,14 12.5,14 12.22,14 12,13.78 12,13.5 12,13.22 12.22,13 12.5,13 12.78,13 13,13.22 13,13.5 Z M 7.25,9.5 C 7.25,9.78 7.03,10 6.75,10 6.47,10 6.25,9.78 6.25,9.5 6.25,9.22 6.47,9 6.75,9 7.03,9 7.25,9.22 7.25,9.5 Z M 13,9.5 C 13,9.78 12.78,10 12.5,10 12.22,10 12,9.78 12,9.5 12,9.22 12.22,9 12.5,9 12.78,9 13,9.22 13,9.5 Z M 13,9.5" />
  </g>
</svg>