<svg version="1.1" xmlns="http://www.w3.org/2000/svg" xmlns:xlink="http://www.w3.org/1999/xlink" width="20" height="20" viewBox="0 0 20 20" xml:space="preserve" id="copyrightCanvas">
    <g id="copyrightGroup">
      <<path id="canvasCopyright-bezier" stroke="none" fill="#000" d="M 19,10 C 19,14.97 14.97,19 10,19 5.03,19 1,14.97 1,10 1,5.03 5.03,1 10,1 14.97,1 19,5.03 19,10 Z M 17,10 C 17,6.13 13.87,3 10,3 6.13,3 3,6.13 3,10 3,13.87 6.13,17 10,17 13.87,17 17,13.87 17,10 Z M 12.44,8.36 L 14.57,8.36 C 14.51,7.79 14.35,7.27 14.09,6.82 13.84,6.38 13.52,6 13.14,5.7 12.75,5.39 12.31,5.16 11.82,5 11.33,4.85 10.81,4.77 10.26,4.77 9.49,4.77 8.81,4.9 8.19,5.17 7.58,5.44 7.07,5.82 6.65,6.29 6.23,6.77 5.91,7.33 5.68,7.97 5.46,8.6 5.34,9.3 5.34,10.04 5.34,10.77 5.46,11.45 5.68,12.08 5.91,12.71 6.23,13.26 6.65,13.73 7.07,14.19 7.58,14.56 8.19,14.83 8.81,15.09 9.49,15.22 10.26,15.22 10.88,15.22 11.44,15.13 11.95,14.94 12.47,14.76 12.91,14.49 13.3,14.13 13.68,13.78 13.99,13.35 14.22,12.84 14.45,12.34 14.6,11.78 14.66,11.15 L 12.53,11.15 C 12.44,11.82 12.21,12.36 11.83,12.77 11.46,13.18 10.93,13.39 10.26,13.39 9.76,13.39 9.34,13.29 9,13.1 8.65,12.91 8.37,12.66 8.16,12.34 7.94,12.02 7.79,11.67 7.69,11.27 7.59,10.87 7.54,10.46 7.54,10.04 7.54,9.61 7.59,9.18 7.69,8.77 7.79,8.36 7.94,7.99 8.16,7.67 8.37,7.35 8.65,7.09 9,6.9 9.34,6.71 9.76,6.61 10.26,6.61 10.53,6.61 10.79,6.66 11.04,6.75 11.28,6.84 11.5,6.96 11.7,7.12 11.9,7.28 12.06,7.46 12.19,7.67 12.32,7.88 12.41,8.11 12.44,8.36 Z M 12.44,8.36" />
    </g>
</svg>