<svg version="1.1" xmlns="http://www.w3.org/2000/svg" xmlns:xlink="http://www.w3.org/1999/xlink" width="20" height="20" viewBox="0 0 20 20" xml:space="preserve" id="donationflowCanvas">
    <g id="donation-group">
        <circle id="donation-oval" stroke="#000" stroke-width="0.5" stroke-miterlimit="10" fill="none" cx="6" cy="13.7" r="5" />
        <path id="donation-text" stroke="none" fill="#000" d="M 4.95,14.84 L 3.8,14.84 C 3.85,15.47 4.05,15.95 4.4,16.28 4.74,16.61 5.21,16.79 5.82,16.83 L 5.82,17.52 6.3,17.52 6.3,16.83 C 6.71,16.81 7.05,16.73 7.31,16.59 7.57,16.46 7.78,16.31 7.93,16.13 8.09,15.96 8.19,15.79 8.25,15.61 8.31,15.43 8.34,15.28 8.34,15.16 8.34,15.03 8.33,14.87 8.31,14.7 8.3,14.53 8.23,14.36 8.13,14.19 8.03,14.01 7.87,13.85 7.65,13.69 7.43,13.53 7.12,13.4 6.72,13.29 6.64,13.27 6.57,13.25 6.5,13.24 6.44,13.22 6.37,13.2 6.3,13.19 L 6.3,11.76 C 6.49,11.76 6.65,11.84 6.78,11.99 6.91,12.14 6.98,12.32 6.98,12.54 L 8.14,12.54 C 8.12,12.26 8.06,12.01 7.96,11.81 7.86,11.61 7.72,11.44 7.56,11.3 7.4,11.16 7.21,11.05 6.99,10.98 6.78,10.9 6.55,10.85 6.3,10.82 L 6.3,10.2 5.82,10.2 5.82,10.82 C 5.58,10.84 5.34,10.88 5.11,10.96 4.88,11.04 4.68,11.15 4.51,11.29 4.34,11.43 4.2,11.61 4.09,11.82 3.98,12.03 3.93,12.27 3.93,12.54 3.93,12.81 3.98,13.04 4.07,13.22 4.16,13.4 4.29,13.55 4.44,13.67 4.6,13.79 4.77,13.88 4.97,13.96 5.16,14.03 5.36,14.09 5.56,14.15 5.62,14.16 5.67,14.17 5.71,14.18 5.76,14.2 5.8,14.21 5.82,14.22 L 5.82,15.9 C 5.57,15.85 5.36,15.74 5.19,15.56 5.03,15.39 4.94,15.14 4.95,14.84 Z M 6.3,15.9 L 6.3,14.35 C 6.62,14.44 6.85,14.54 6.98,14.64 7.12,14.75 7.18,14.9 7.18,15.11 7.18,15.24 7.16,15.35 7.1,15.45 7.05,15.54 6.98,15.62 6.9,15.68 6.81,15.75 6.72,15.8 6.61,15.83 6.5,15.87 6.4,15.89 6.3,15.9 Z M 5.82,11.76 L 5.82,13.07 C 5.56,13.02 5.37,12.94 5.26,12.84 5.15,12.74 5.09,12.61 5.09,12.43 5.09,12.32 5.11,12.22 5.15,12.14 5.19,12.05 5.25,11.98 5.32,11.93 5.39,11.87 5.47,11.83 5.55,11.8 5.64,11.78 5.73,11.76 5.82,11.76 Z M 5.82,11.76" />
        <path id="donation-bezier2" stroke="#000" stroke-width="0.5" stroke-miterlimit="10" fill="#FFF" d="M 5.49,8.63 C 5.49,8.63 5.56,7.86 5.97,6.3 6.13,5.7 6.31,5.01 6.72,4.55 7.34,4.1 7.93,3.88 8.52,3.69 9.76,3.28 11.06,2.99 12.49,2.58 14.64,1.62 15.41,1 15.41,1 15.41,1 17.17,1.8 18.06,3.04 18.96,4.29 19,6.05 19,6.05 19,6.05 18.23,6.54 17.17,7.56 16.19,9.31 15.57,9.75 15.22,10.1 13.95,11.26 12.77,10.55 10.69,11.64 8.73,12.63 7.85,12.98 6.95,12.72 6.04,12.46 6.8,11.96 7.25,11.07 7.81,10.17 8.29,10.29 9.34,9.53 9.83,9.17 11.36,8.2 11.36,8.2 11.36,8.2 11.83,7.63 11.81,7.45 11.79,7.07 10.82,6.72 10.54,6.52 10.26,6.32 10.03,6.39 10.03,6.39 L 8.74,6.84 7.7,8.92 C 7.7,8.92 7.39,8.83 7.03,8.77 6.68,8.7 6.27,8.67 6.27,8.67 L 5.49,8.63 Z M 5.49,8.63" />
    </g>
</svg>