<svg version="1.1" xmlns="http://www.w3.org/2000/svg" xmlns:xlink="http://www.w3.org/1999/xlink" width="20" height="20" viewBox="0 0 20 20" xml:space="preserve" id="redditCanvas">
  <g id="redditGroup">
    <path id="reddit" stroke="none" fill="#000" d="M 19,9.83 C 19,8.61 18.06,7.63 16.9,7.63 16.38,7.63 15.9,7.83 15.53,8.18 14.22,7.3 12.48,6.72 10.57,6.62 L 11.58,3.27 14.33,3.94 C 14.36,4.92 15.13,5.71 16.06,5.71 17.02,5.71 17.79,4.89 17.79,3.89 17.79,2.89 17.02,2.07 16.06,2.07 15.36,2.07 14.77,2.5 14.49,3.11 L 11.4,2.35 C 11.2,2.3 10.98,2.43 10.93,2.63 L 9.73,6.6 C 7.69,6.64 5.83,7.23 4.45,8.15 4.07,7.82 3.61,7.63 3.1,7.63 1.94,7.63 1,8.61 1,9.83 1,10.6 1.39,11.27 1.95,11.67 1.93,11.86 1.91,12.06 1.91,12.26 1.91,15.39 5.53,17.93 9.96,17.93 14.4,17.93 18.01,15.39 18.01,12.26 18.01,12.07 18,11.9 17.97,11.71 18.59,11.32 19,10.63 19,9.83 Z M 16.06,2.91 C 16.57,2.91 16.99,3.35 16.99,3.89 16.99,4.42 16.57,4.86 16.06,4.86 15.55,4.86 15.13,4.42 15.13,3.89 15.13,3.35 15.55,2.91 16.06,2.91 Z M 1.81,9.83 C 1.81,9.08 2.39,8.48 3.1,8.48 3.33,8.48 3.56,8.54 3.75,8.66 3.03,9.28 2.49,10 2.2,10.79 1.95,10.55 1.81,10.2 1.81,9.83 Z M 17.21,12.26 C 17.21,14.92 13.96,17.09 9.96,17.09 5.96,17.09 2.71,14.92 2.71,12.26 2.71,12.17 2.72,12.09 2.72,11.99 2.75,11.71 2.81,11.43 2.92,11.16 3.16,10.47 3.62,9.83 4.27,9.29 4.47,9.12 4.7,8.96 4.93,8.8 6.25,7.97 8.02,7.45 9.96,7.45 11.94,7.45 13.74,7.98 15.04,8.84 15.28,8.98 15.5,9.16 15.71,9.33 16.33,9.87 16.78,10.49 17.02,11.18 17.11,11.44 17.17,11.71 17.2,11.99 17.2,12.09 17.21,12.18 17.21,12.26 Z M 17.75,10.84 C 17.46,10.04 16.93,9.32 16.21,8.69 16.42,8.56 16.65,8.48 16.9,8.48 17.61,8.48 18.19,9.08 18.19,9.83 18.19,10.23 18.02,10.59 17.75,10.84 Z M 8.53,11.11 C 8.65,11.85 8.19,12.53 7.51,12.64 6.83,12.75 6.18,12.23 6.07,11.5 5.95,10.76 6.41,10.08 7.09,9.97 7.77,9.86 8.42,10.37 8.53,11.11 Z M 12.7,9.93 C 12.03,9.93 11.45,10.53 11.45,11.24 11.45,11.97 12.03,12.54 12.7,12.54 13.38,12.54 13.93,11.97 13.93,11.24 13.93,10.53 13.38,9.93 12.7,9.93 Z M 12.35,14.39 C 11.9,14.85 11.13,15.09 10.01,15.09 10,15.09 10,15.09 10,15.09 L 9.99,15.09 C 8.87,15.09 8.1,14.85 7.65,14.39 7.48,14.21 7.22,14.21 7.07,14.39 6.91,14.55 6.91,14.81 7.07,14.97 7.69,15.62 8.64,15.94 9.99,15.94 L 10,15.94 C 10,15.94 10,15.94 10.01,15.94 11.36,15.94 12.31,15.62 12.93,14.97 13.09,14.81 13.09,14.55 12.93,14.39 12.78,14.21 12.52,14.21 12.35,14.39 Z M 12.35,14.39" />
    
  </g>
</svg>