<svg version="1.1" xmlns="http://www.w3.org/2000/svg" xmlns:xlink="http://www.w3.org/1999/xlink" width="20" height="20" viewBox="0 0 20 20" xml:space="preserve" id="snapchat">
    <path id="snapchat-snapchatbezier" stroke="none" fill="#000" d="M 10.24,2.44 C 12.46,2.44 14.3,4.4 14.3,6.76 14.31,7.32 14.32,7.83 14.35,8.3 14.37,8.59 14.6,8.8 14.86,8.8 14.89,8.8 14.93,8.8 14.97,8.79 L 15.66,8.61 C 15.69,8.61 15.72,8.6 15.75,8.6 15.93,8.6 16.09,8.73 16.13,8.92 16.19,9.19 16.05,9.46 15.8,9.55 L 14.75,10 C 14.48,10.12 14.34,10.43 14.41,10.72 15.26,14.04 17.62,13.7 17.62,14.13 17.62,14.68 15.84,14.75 15.68,14.92 15.52,15.09 15.67,15.92 15.31,16.09 15.25,16.12 15.15,16.13 15.03,16.13 14.76,16.13 14.38,16.07 13.98,16.07 13.63,16.07 13.26,16.11 12.94,16.27 12.09,16.69 11.27,17.47 10.25,17.47 9.23,17.47 8.41,16.69 7.56,16.27 7.24,16.11 6.87,16.07 6.52,16.07 6.12,16.07 5.74,16.13 5.47,16.13 5.35,16.13 5.25,16.12 5.19,16.09 4.83,15.92 4.98,15.09 4.82,14.92 4.66,14.75 2.88,14.68 2.88,14.13 2.88,13.7 5.24,14.04 6.09,10.72 6.16,10.43 6.02,10.12 5.75,10 L 4.7,9.55 C 4.45,9.46 4.31,9.19 4.37,8.92 4.41,8.73 4.57,8.6 4.75,8.6 4.78,8.6 4.81,8.61 4.84,8.61 L 5.53,8.79 C 5.57,8.8 5.61,8.8 5.65,8.8 5.91,8.8 6.13,8.59 6.15,8.3 6.18,7.83 6.19,7.32 6.2,6.76 6.2,4.4 8.03,2.44 10.24,2.44 Z M 10.24,1.5 L 10.24,1.5 10.24,1.5 C 9.58,1.5 8.94,1.64 8.33,1.92 7.74,2.19 7.22,2.57 6.77,3.05 6.31,3.54 5.96,4.1 5.71,4.72 5.45,5.37 5.32,6.06 5.31,6.76 5.31,7.11 5.31,7.44 5.29,7.76 L 5.04,7.7 C 4.94,7.68 4.84,7.66 4.75,7.66 4.47,7.66 4.19,7.77 3.97,7.95 3.74,8.14 3.57,8.41 3.51,8.72 3.36,9.44 3.73,10.17 4.38,10.43 L 5.16,10.76 C 4.64,12.43 3.7,12.75 3.07,12.97 2.9,13.02 2.75,13.07 2.61,13.15 2.06,13.44 2,13.93 2,14.13 2,14.51 2.17,14.86 2.48,15.11 2.63,15.24 2.82,15.34 3.06,15.43 3.38,15.54 3.76,15.62 4.06,15.68 4.08,15.8 4.1,15.93 4.13,16.06 4.28,16.6 4.6,16.84 4.84,16.95 5.07,17.05 5.31,17.06 5.47,17.06 5.62,17.06 5.78,17.05 5.96,17.04 6.14,17.02 6.33,17.01 6.52,17.01 6.82,17.01 7.03,17.04 7.19,17.12 7.4,17.23 7.63,17.37 7.87,17.52 8.54,17.94 9.29,18.41 10.25,18.41 11.21,18.41 11.96,17.94 12.63,17.52 12.87,17.37 13.1,17.23 13.31,17.12 13.47,17.04 13.68,17.01 13.98,17.01 14.17,17.01 14.36,17.02 14.54,17.04 14.72,17.05 14.88,17.06 15.03,17.06 15.19,17.06 15.43,17.05 15.66,16.95 15.9,16.84 16.22,16.6 16.37,16.06 16.4,15.93 16.42,15.8 16.44,15.68 16.74,15.62 17.12,15.54 17.44,15.43 17.68,15.34 17.87,15.24 18.02,15.11 18.33,14.86 18.5,14.51 18.5,14.13 18.5,13.93 18.44,13.44 17.89,13.15 17.75,13.07 17.6,13.02 17.44,12.97 16.8,12.75 15.86,12.43 15.34,10.76 L 16.12,10.43 C 16.77,10.17 17.14,9.44 16.99,8.72 16.93,8.41 16.77,8.14 16.53,7.95 16.31,7.77 16.03,7.66 15.75,7.66 15.66,7.66 15.56,7.68 15.46,7.7 L 15.21,7.76 C 15.19,7.44 15.19,7.11 15.19,6.76 15.19,6.06 15.05,5.37 14.79,4.72 14.54,4.1 14.18,3.54 13.73,3.05 13.27,2.57 12.74,2.19 12.16,1.92 11.55,1.64 10.9,1.5 10.24,1.5 L 10.24,1.5 Z M 10.24,1.5" />
</svg>