<svg version="1.1" xmlns="http://www.w3.org/2000/svg" xmlns:xlink="http://www.w3.org/1999/xlink" width="20" height="20" viewBox="0 0 20 20" xml:space="preserve" id="speakerCanvas">
    <g id="speakerGroup">
      <path id="speaker" stroke="none" fill="#000" d="M 10.18,3.8 L 6.33,7.61 C 6.23,7.7 6.11,7.75 5.98,7.75 L 2,7.75 2,12.33 5.91,12.33 C 6.04,12.33 6.16,12.38 6.25,12.47 L 10.18,16.2 10.18,3.8 Z M 10.18,2.55 C 10.5,2.24 11.03,2.47 11.03,2.91 L 11.03,17.22 C 11.03,17.66 10.5,17.89 10.19,17.58 L 5.98,13.33 1.67,13.33 C 1.39,13.33 1.17,13.11 1.17,12.83 L 1.17,7.25 C 1.17,6.97 1.39,6.75 1.67,6.75 L 5.98,6.75 10.18,2.55 Z M 12.41,12.96 C 12.9,12.11 13.16,11.13 13.16,10.1 13.16,9.06 12.89,8.06 12.4,7.2 12.26,6.96 12.34,6.65 12.58,6.52 12.82,6.38 13.13,6.46 13.26,6.7 13.84,7.72 14.16,8.89 14.16,10.1 14.16,11.3 13.85,12.45 13.29,13.46 13.15,13.7 12.84,13.78 12.6,13.65 12.36,13.51 12.28,13.2 12.41,12.96 Z M 15.1,4.61 C 16.18,6.19 16.76,8.1 16.76,10.1 16.76,12.09 16.19,13.98 15.14,15.55 14.98,15.78 14.67,15.84 14.44,15.69 14.21,15.53 14.15,15.22 14.3,14.99 15.25,13.58 15.76,11.89 15.76,10.1 15.76,8.3 15.24,6.59 14.28,5.17 14.12,4.94 14.18,4.63 14.41,4.48 14.64,4.32 14.95,4.38 15.1,4.61 Z M 16.04,16.89 C 17.43,14.96 18.19,12.6 18.19,10.1 18.19,7.59 17.42,5.21 16.02,3.27 15.86,3.05 15.91,2.74 16.14,2.57 16.36,2.41 16.67,2.46 16.84,2.69 18.35,4.79 19.19,7.38 19.19,10.1 19.19,12.81 18.36,15.38 16.86,17.47 16.7,17.7 16.38,17.75 16.16,17.59 15.93,17.43 15.88,17.11 16.04,16.89 Z M 16.04,16.89" />
    </g>
</svg>