<svg version="1.1" xmlns="http://www.w3.org/2000/svg" xmlns:xlink="http://www.w3.org/1999/xlink" width="20" height="20" viewBox="0 0 20 20" xml:space="preserve" id="spotify">
    <g id="spotifyGroup">
      <path id="spotify" stroke="none" fill="#000" d="M 18.31,6.46 C 15,5.01 11.44,4.28 7.72,4.28 5.79,4.28 3.86,4.49 1.99,4.89 1.37,5.03 0.99,5.69 1.14,6.23 1.3,6.77 1.92,7.1 2.54,6.97 4.23,6.6 5.97,6.41 7.72,6.41 11.08,6.41 14.29,7.08 17.28,8.39 17.44,8.46 17.62,8.49 17.79,8.49 18.22,8.49 18.62,8.18 18.83,7.82 19.11,7.32 18.88,6.71 18.31,6.46 Z M 7.72,12.86 C 6.16,12.86 4.62,13.06 3.14,13.47 2.68,13.59 2.43,14.44 2.57,14.84 2.71,15.24 3.19,15.47 3.65,15.34 4.96,14.98 6.34,14.8 7.72,14.8 10.04,14.8 12.33,15.32 14.34,16.3 L 14.76,16.39 C 15.07,16.39 15.37,16.25 15.52,16 15.75,15.63 15.6,14.74 15.18,14.54 12.91,13.44 10.33,12.86 7.72,12.86 Z M 16.69,10.63 C 13.94,9.38 10.84,8.71 7.72,8.71 5.98,8.71 4.25,8.92 2.59,9.32 2.05,9.45 1.73,10.25 1.88,10.72 2.02,11.2 2.58,11.47 3.12,11.35 4.61,10.99 6.17,10.81 7.72,10.81 10.56,10.81 13.26,11.38 15.76,12.52 15.91,12.59 16.07,12.63 16.23,12.63 16.59,12.63 16.94,12.13 17.12,11.83 17.38,11.39 17.18,10.86 16.69,10.63 Z M 16.69,10.63" />
    </g>
</svg>