<svg version="1.1" xmlns="http://www.w3.org/2000/svg" xmlns:xlink="http://www.w3.org/1999/xlink" width="20" height="20" viewBox="0 0 20 20" xml:space="preserve" id="stackoverflowCanvas">
    <g id="stackoverflowGroup">
      <path id="stackoverflow" stroke="none" fill="#000" d="M 13.77,16.55 L 13.77,12.27 14.94,12.27 14.94,17.97 4.39,17.97 4.39,12.27 5.56,12.27 5.56,16.55 13.77,16.55 Z M 6.85,11.86 L 12.59,13.32 12.83,11.92 7.09,10.46 6.85,11.86 Z M 7.61,8.54 L 12.92,11.55 13.4,10.26 8.09,7.24 7.61,8.54 Z M 9.08,5.37 L 13.59,9.93 14.33,8.84 9.82,4.29 9.08,5.37 Z M 11.99,2 L 11.05,2.85 14.54,8.56 15.48,7.71 11.99,2 Z M 6.73,15.11 L 12.59,15.11 12.59,13.69 6.73,13.69 6.73,15.11 Z M 6.73,15.11" />
    </g>
</svg>