<svg version="1.1" xmlns="http://www.w3.org/2000/svg" xmlns:xlink="http://www.w3.org/1999/xlink" width="20" height="20" viewBox="0 0 20 20" xml:space="preserve" id="swiftCanvas">
    <g id="swiftGroup">
        <path id="swiftbezier" stroke="none" fill="#000" d="M 14.58,16.91 C 12.46,18.11 9.54,18.23 6.61,17.01 4.23,16.02 2.26,14.3 1,12.34 1.61,12.83 2.31,13.22 3.07,13.57 6.1,14.95 9.13,14.85 11.26,13.57 11.26,13.57 11.26,13.57 11.26,13.57 8.23,11.3 5.65,8.35 3.73,5.95 3.32,5.55 3.02,5.06 2.72,4.62 5.04,6.68 8.73,9.29 10.04,10.03 7.26,7.17 4.79,3.63 4.89,3.73 9.29,8.06 13.38,10.52 13.38,10.52 13.51,10.59 13.62,10.65 13.7,10.71 13.79,10.49 13.87,10.26 13.93,10.03 14.64,7.52 13.83,4.67 12.07,2.31 16.16,4.72 18.58,9.24 17.57,13.02 17.55,13.13 17.52,13.23 17.49,13.33 17.5,13.34 17.51,13.35 17.52,13.37 19.54,15.83 18.99,18.43 18.73,17.94 17.64,15.85 15.61,16.49 14.58,16.91 Z M 14.58,16.91" />
    </g>
</svg>